<?xml version="1.0"?>
<svg xmlns="http://www.w3.org/2000/svg" xmlns:xlink="http://www.w3.org/1999/xlink" xmlns:svgjs="http://svgjs.com/svgjs" version="1.1" width="512" height="512" x="0" y="0" viewBox="0 0 511.99989 511" style="enable-background:new 0 0 512 512" xml:space="preserve" class=""><g><path xmlns="http://www.w3.org/2000/svg" d="m495.292969 166.832031-149.652344-149.648437c-10.757813-10.761719-25.105469-16.683594-40.398437-16.683594-15.292969 0-29.640626 5.921875-40.398438 16.679688l-24.019531 24.023437c-10.761719 10.757813-16.6875 25.105469-16.6875 40.398437 0 15.292969 5.925781 29.644532 16.6875 40.398438l149.652343 149.652344c10.757813 10.757812 25.101563 16.683594 40.398438 16.683594 15.292969 0 29.640625-5.925782 40.398438-16.683594l24.019531-24.019532c22.277343-22.277343 22.277343-58.527343 0-80.800781zm0 0" fill="#dadff7" data-original="#000000" style="" class=""/><path xmlns="http://www.w3.org/2000/svg" d="m219.609375 143.214844c-7.667969-7.671875-13.707031-16.542969-17.988281-26.183594l-114.816406 58.5c-24.863282 12.671875-47.785157 44.179688-52.183594 71.734375l-33.90625 212.351563c-1.601563 10.046874-.492188 19.582031 3.128906 27.796874l176.277344-176.277343c-4.570313-8.140625-7.015625-17.347657-7.015625-26.9375 0-14.738281 5.738281-28.589844 16.160156-39.007813 10.417969-10.417968 24.269531-16.15625 39.003906-16.15625s28.585938 5.738282 39.007813 16.15625c10.417968 10.417969 16.160156 24.269532 16.160156 39.007813 0 14.734375-5.742188 28.589843-16.160156 39.007812-10.421875 10.417969-24.273438 16.15625-39.007813 16.15625-9.589843 0-18.796875-2.445312-26.9375-7.015625l-176.277343 176.28125c5.730468 2.519532 12.148437 3.84375 18.976562 3.84375h.003906c2.882813 0 5.851563-.238281 8.820313-.714844l212.351562-33.902343c27.558594-4.402344 59.066407-27.324219 71.738281-52.1875l58.496094-114.816407c-9.640625-4.28125-18.507812-10.316406-26.179687-17.984374zm0 0" fill="#dadff7" data-original="#000000" style="" class=""/></g></svg>
