<?xml version="1.0"?>
<svg xmlns="http://www.w3.org/2000/svg" xmlns:xlink="http://www.w3.org/1999/xlink" xmlns:svgjs="http://svgjs.com/svgjs" version="1.1" width="512" height="512" x="0" y="0" viewBox="0 0 511.999 511.999" style="enable-background:new 0 0 512 512" xml:space="preserve" class=""><g>
<g xmlns="http://www.w3.org/2000/svg">
	<g>
		<path d="M386.965,210.868c-0.102-0.117-0.2-0.235-0.298-0.356c-2.383-2.934-5.458-3.512-7.078-3.596    c-1.62-0.085-4.738,0.178-7.408,2.852L224.454,357.724c-5.508,5.515-14.309,5.924-20.304,0.946l-62.174-51.628    c-3.659-3.039-8.943-3.006-12.562,0.075c-0.046,0.039-0.091,0.077-0.139,0.116L0,414.596v31.978    c0,36.076,29.349,65.425,65.425,65.425h381.149c36.076,0,65.425-29.35,65.425-65.425v-91.077L386.965,210.868z" fill="#dadff7" data-original="#000000" style="" class=""/>
	</g>
</g>
<g xmlns="http://www.w3.org/2000/svg">
	<g>
		<path d="M161.174,93.152c-23.466,0-42.557,19.091-42.557,42.556c0,23.465,19.092,42.556,42.557,42.556    c23.466,0,42.556-19.091,42.556-42.556C203.73,112.242,184.64,93.152,161.174,93.152z" fill="#dadff7" data-original="#000000" style="" class=""/>
	</g>
</g>
<g xmlns="http://www.w3.org/2000/svg">
	<g>
		<path d="M446.575,0H65.425C29.351,0,0,29.349,0,65.425v309.968l109.944-91.309c14.806-12.535,36.363-12.646,51.297-0.245    l51.59,42.84l138.007-138.22c7.979-7.989,19.031-12.236,30.295-11.662c11.19,0.574,21.664,5.856,28.779,14.501l102.086,118.084    V65.425C512,29.349,482.649,0,446.575,0z M161.174,208.421c-40.095,0-72.714-32.619-72.714-72.713s32.621-72.713,72.714-72.713    c40.095,0,72.713,32.62,72.713,72.713C233.887,175.802,201.269,208.421,161.174,208.421z" fill="#dadff7" data-original="#000000" style="" class=""/>
	</g>
</g>
<g xmlns="http://www.w3.org/2000/svg">
</g>
<g xmlns="http://www.w3.org/2000/svg">
</g>
<g xmlns="http://www.w3.org/2000/svg">
</g>
<g xmlns="http://www.w3.org/2000/svg">
</g>
<g xmlns="http://www.w3.org/2000/svg">
</g>
<g xmlns="http://www.w3.org/2000/svg">
</g>
<g xmlns="http://www.w3.org/2000/svg">
</g>
<g xmlns="http://www.w3.org/2000/svg">
</g>
<g xmlns="http://www.w3.org/2000/svg">
</g>
<g xmlns="http://www.w3.org/2000/svg">
</g>
<g xmlns="http://www.w3.org/2000/svg">
</g>
<g xmlns="http://www.w3.org/2000/svg">
</g>
<g xmlns="http://www.w3.org/2000/svg">
</g>
<g xmlns="http://www.w3.org/2000/svg">
</g>
<g xmlns="http://www.w3.org/2000/svg">
</g>
</g></svg>
