<?xml version="1.0"?>
<svg xmlns="http://www.w3.org/2000/svg" xmlns:xlink="http://www.w3.org/1999/xlink" xmlns:svgjs="http://svgjs.com/svgjs" version="1.1" width="512" height="512" x="0" y="0" viewBox="0 0 24 24" style="enable-background:new 0 0 512 512" xml:space="preserve" class=""><circle r="12" cx="12" cy="12" fill="#0a090c" shape="circle"/><g transform="matrix(0.7,0,0,0.7,3.599999713897706,3.599954769015312)"><g xmlns="http://www.w3.org/2000/svg"><g><path d="m21.25 6h-4.5c-.304 0-.577-.183-.693-.463-.115-.28-.052-.603.163-.817l4.5-4.5c.215-.214.537-.28.817-.163.28.116.463.39.463.693v4.5c0 .414-.336.75-.75.75z" fill="#dadff7" data-original="#2196f3" style="" class=""/></g></g><g xmlns="http://www.w3.org/2000/svg"><g><path d="m12 24c-6.617 0-12-5.383-12-12s5.383-12 12-12c2.689 0 5.223.865 7.324 2.501.436.339.514.968.175 1.403-.34.436-.968.514-1.403.175-1.747-1.36-3.856-2.079-6.096-2.079-5.514 0-10 4.486-10 10s4.486 10 10 10 10-4.486 10-10c0-.553.447-1 1-1s1 .447 1 1c0 6.617-5.383 12-12 12z" fill="#dadff7" data-original="#2196f3" style="" class=""/></g></g><g xmlns="http://www.w3.org/2000/svg"><g><path d="m14.04 16.171v.72c0 .61-.5 1.11-1.119 1.11h-1.841c-.54 0-1.119-.4-1.119-1.29v-.54z" fill="#afb1be" data-original="#607d8b" style="" class=""/></g></g><g xmlns="http://www.w3.org/2000/svg"><g><path d="m16.501 10.471c0 1.35-.601 2.61-1.65 3.46-.42.34-.69.78-.78 1.24-.02.109-.03.23-.03.34v.66h-4.08v-.76l-.021-.24c-.07-.45-.32-.87-.73-1.19-1.11-.87-1.74-2.18-1.71-3.6.05-2.38 2.039-4.351 4.43-4.38 1.21-.03 2.37.439 3.24 1.3.86.84 1.331 1.97 1.331 3.17z" fill="#edcb1b" data-original="#ffc107" style="" class=""/></g></g><g xmlns="http://www.w3.org/2000/svg"><g><path d="m12 0c-6.617 0-12 5.383-12 12s5.383 12 12 12v-2c-5.514 0-10-4.486-10-10s4.486-10 10-10z" fill="#dadff7" data-original="#1d83d4" style="" class=""/></g></g><g xmlns="http://www.w3.org/2000/svg"><g><path d="m12 16.171h-2.039v.54c0 .89.579 1.29 1.119 1.29h.92z" fill="#afb1be" data-original="#546d79" style="" class=""/></g></g><g xmlns="http://www.w3.org/2000/svg"><g><path d="m12 6c-.023 0-.046 0-.069.001-2.391.029-4.38 2-4.43 4.38-.03 1.42.6 2.73 1.71 3.6.409.32.659.74.73 1.19l.021.24v.76h2.038z" fill="#edcb1b" data-original="#dea806" style="" class=""/></g></g></g></svg>
