<svg width="15" height="15" viewBox="0 0 15 15" fill="none" xmlns="http://www.w3.org/2000/svg">
<path d="M12.4219 1.875H9.84375V1.40625C9.84375 0.62959 9.21416 0 8.4375 0H6.5625C5.78584 0 5.15625 0.62959 5.15625 1.40625V1.875H2.57812C1.93093 1.875 1.40625 2.39968 1.40625 3.04688V3.98438C1.40625 4.24327 1.6161 4.45312 1.875 4.45312H13.125C13.3839 4.45312 13.5938 4.24327 13.5938 3.98438V3.04688C13.5938 2.39968 13.0691 1.875 12.4219 1.875ZM6.09375 1.40625C6.09375 1.14785 6.3041 0.9375 6.5625 0.9375H8.4375C8.6959 0.9375 8.90625 1.14785 8.90625 1.40625V1.875H6.09375V1.40625Z" fill="#FF9898"/>
<path d="M2.29589 5.39062C2.21225 5.39062 2.1456 5.46053 2.14958 5.54408L2.5363 13.6605C2.57204 14.4117 3.18904 15 3.94079 15H11.0593C11.8111 15 12.4281 14.4117 12.4638 13.6605L12.8506 5.54408C12.8545 5.46053 12.7879 5.39062 12.7043 5.39062H2.29589ZM9.37507 6.5625C9.37507 6.30352 9.58484 6.09375 9.84382 6.09375C10.1028 6.09375 10.3126 6.30352 10.3126 6.5625V12.6562C10.3126 12.9152 10.1028 13.125 9.84382 13.125C9.58484 13.125 9.37507 12.9152 9.37507 12.6562V6.5625ZM7.03132 6.5625C7.03132 6.30352 7.24109 6.09375 7.50007 6.09375C7.75906 6.09375 7.96882 6.30352 7.96882 6.5625V12.6562C7.96882 12.9152 7.75906 13.125 7.50007 13.125C7.24109 13.125 7.03132 12.9152 7.03132 12.6562V6.5625ZM4.68757 6.5625C4.68757 6.30352 4.89734 6.09375 5.15632 6.09375C5.41531 6.09375 5.62507 6.30352 5.62507 6.5625V12.6562C5.62507 12.9152 5.41531 13.125 5.15632 13.125C4.89734 13.125 4.68757 12.9152 4.68757 12.6562V6.5625Z" fill="#FF9898"/>
</svg>
