<svg width="50" height="50" viewBox="0 0 50 50" fill="none" xmlns="http://www.w3.org/2000/svg">
<g clip-path="url(#clip0)">
<path d="M24.9991 15.645V6.24884C24.9984 5.67353 24.5315 5.2077 23.9561 5.20828C23.7477 5.20848 23.5442 5.27127 23.3718 5.38837L0.454387 21.0139C-0.0208246 21.3382 -0.143192 21.9863 0.181135 22.4615C0.25438 22.5688 0.347059 22.6615 0.454387 22.7347L23.3718 38.3603C23.8477 38.6836 24.4956 38.56 24.8189 38.0841C24.936 37.9117 24.9987 37.7082 24.999 37.4998V28.1557C36.8473 28.839 47.7997 40.9082 47.9164 43.7062V43.7667C47.9255 44.3355 48.3893 44.7918 48.9581 44.7917C49.5335 44.7917 49.9999 44.3253 49.9999 43.75V43.6979C49.7916 32.1622 41.0205 16.3075 24.9991 15.645Z" fill="#2F8BCF"/>
</g>
<defs>
<clipPath id="clip0">
<rect width="50" height="50" fill="white"/>
</clipPath>
</defs>
</svg>
