<svg width="150" height="150" viewBox="0 0 150 150" fill="none" xmlns="http://www.w3.org/2000/svg">
<path d="M142.788 0H7.21154C3.22872 0 0 3.22872 0 7.21154V142.788C0 146.771 3.22872 150 7.21154 150H142.788C146.771 150 150 146.771 150 142.788V7.21154C150 3.22872 146.771 0 142.788 0Z" fill="#C7E7FF"/>
<path d="M76.3338 58.0386C64.7636 58.0386 55.3843 67.418 55.3843 78.9882C55.3843 90.5583 64.7636 99.9377 76.3338 99.9377C87.9039 99.9377 97.2833 90.5583 97.2833 78.9882C97.2764 67.421 87.901 58.0455 76.3338 58.0386ZM89.6609 73.738L74.567 88.1506C74.2396 88.4592 73.8058 88.6308 73.3552 88.6298C72.8859 88.6268 72.4353 88.4464 72.0932 88.125L63.5371 79.5689C62.847 78.8787 62.847 77.7597 63.5371 77.0695C64.2273 76.3793 65.3463 76.3793 66.0355 77.0695L73.3809 84.4148L87.2374 71.1883C87.5746 70.8619 88.0282 70.6835 88.4975 70.6933C88.9668 70.7032 89.4134 70.8994 89.7368 71.2396C90.3718 71.9632 90.3383 73.0537 89.6609 73.738Z" fill="black"/>
<path d="M106.294 30.4763H94.4311V36.256C94.434 36.7253 94.2496 37.1769 93.9174 37.5082C93.5851 37.8404 93.1345 38.0258 92.6642 38.0228H60.0036C59.5343 38.0258 59.0827 37.8404 58.7514 37.5082C58.4191 37.1769 58.2338 36.7253 58.2367 36.256V30.4763H46.3738C41.7753 30.4803 38.0494 34.2072 38.0444 38.8057V119.171C38.0494 123.769 41.7753 127.495 46.3738 127.5H106.294C110.893 127.495 114.619 123.769 114.623 119.171V38.8057C114.619 34.2072 110.893 30.4803 106.294 30.4763ZM76.3339 103.471C62.8125 103.471 51.8507 92.5095 51.8507 78.9882C51.8507 65.4658 62.8125 54.505 76.3339 54.505C89.8562 54.505 100.817 65.4658 100.817 78.9882C100.804 92.5046 89.8503 103.459 76.3339 103.471Z" fill="black"/>
<path d="M61.7705 22.5H90.8975V34.4636H61.7705V22.5Z" fill="black"/>
</svg>
