<svg width="150" height="150" viewBox="0 0 150 150" fill="none" xmlns="http://www.w3.org/2000/svg">
<path d="M144.141 0H5.85938C2.62333 0 0 2.62333 0 5.85938V144.141C0 147.377 2.62333 150 5.85938 150H144.141C147.377 150 150 147.377 150 144.141V5.85938C150 2.62333 147.377 0 144.141 0Z" fill="#C7E7FF"/>
<path d="M117.595 55.857L113.245 25.4047C112.888 22.9081 109.819 21.8706 108.024 23.6655L101.689 30.0011C93.5414 25.0864 84.292 22.5 74.7811 22.5C46.1792 22.5 23.216 44.8863 22.5011 73.4642C22.4621 75.0262 23.5976 76.366 25.1417 76.5883L37.4343 78.3456C39.2668 78.6131 40.9717 77.1742 40.9462 75.2576C40.6913 56.3965 55.9249 40.957 74.7811 40.957C79.3471 40.957 83.8592 41.8852 88.0291 43.6606L81.9219 49.7678C80.1383 51.5514 81.1506 54.6294 83.6611 54.9889L114.113 59.3388C116.12 59.6413 117.883 57.8963 117.595 55.857Z" fill="black"/>
<path d="M124.858 73.6489L112.574 71.8945C110.988 71.6935 109.063 73.0534 109.063 75.2051C109.063 93.8633 93.883 109.043 75.2248 109.043C70.6827 109.043 66.1915 108.124 62.037 106.366L67.949 100.454C69.7326 98.6707 68.7203 95.5927 66.2098 95.2332L35.7575 90.8802C33.7574 90.5946 31.9861 92.3098 32.2757 94.362L36.6254 124.815C36.9835 127.314 40.0494 128.344 41.8465 126.554L48.3354 120.068C56.4433 124.938 65.6868 127.5 75.2248 127.5C103.688 127.5 126.649 105.225 127.499 76.7883C127.544 75.2231 126.408 73.8712 124.858 73.6489Z" fill="black"/>
</svg>
