<svg width="150" height="150" viewBox="0 0 150 150" fill="none" xmlns="http://www.w3.org/2000/svg">
<path d="M144.141 0H5.85938C2.62333 0 0 2.62333 0 5.85938V144.141C0 147.377 2.62333 150 5.85938 150H144.141C147.377 150 150 147.377 150 144.141V5.85938C150 2.62333 147.377 0 144.141 0Z" fill="#C7E7FF"/>
<path d="M76.6326 127.5C115.332 127.5 120.833 92.534 121.498 91.4444L96.1199 83.6998C95.2379 85.5621 94.6589 104.713 76.4312 104.713C62.3602 104.713 55.2255 94.5206 55.2255 74.4143C55.2255 55.0861 62.4953 45.2868 76.8368 45.2868C93.8659 45.2868 94.9668 61.1148 95.3929 61.8664L121.315 55.9033C120.647 54.8831 115.66 22.5 77.8462 22.5C47.4089 22.5 28.5013 43.0667 28.5013 75.8441C28.5013 106.618 47.8445 127.5 76.6326 127.5Z" fill="black"/>
</svg>
