<svg width="150" height="150" viewBox="0 0 150 150" fill="none" xmlns="http://www.w3.org/2000/svg">
<path d="M144.528 0H5.47155C2.44969 0 0 2.44969 0 5.47155V144.528C0 147.55 2.44969 150 5.47155 150H144.528C147.55 150 150 147.55 150 144.528V5.47155C150 2.44969 147.55 0 144.528 0Z" fill="#C7E7FF"/>
<path d="M115.609 60.0586H113.088V47.8915C113.088 47.8157 113.076 47.7393 113.066 47.6625C113.062 47.1793 112.908 46.705 112.577 46.3291L92.3333 23.2042C92.327 23.1982 92.321 23.1961 92.317 23.1898C92.1964 23.055 92.0558 22.9428 91.9066 22.8459C91.8628 22.8164 91.8183 22.7917 91.7722 22.7658C91.6435 22.6957 91.5066 22.6373 91.366 22.595C91.3277 22.5845 91.2934 22.5693 91.2555 22.559C91.1025 22.5226 90.9438 22.5 90.7831 22.5H41.0293C38.7575 22.5 36.9118 24.3478 36.9118 26.6177V60.0574H34.3905C31.141 60.0574 28.5057 62.6912 28.5057 65.9423V96.547C28.5057 99.7951 31.141 102.432 34.3905 102.432H36.9118V123.382C36.9118 125.653 38.7575 127.5 41.0293 127.5H108.97C111.24 127.5 113.088 125.653 113.088 123.382V102.432H115.609C118.858 102.432 121.494 99.7964 121.494 96.5472V65.9435C121.494 62.6914 118.859 60.0586 115.609 60.0586ZM41.0293 26.6177H88.7242V47.6843C88.7242 48.8224 89.6467 49.7432 90.7831 49.7432H108.971V60.0584H41.0293V26.6177ZM61.3397 65.5965H69.3216L72.0147 71.2075C72.9255 73.0759 73.6111 74.5822 74.3409 76.3161H74.4328C75.1602 74.3547 75.7542 72.9855 76.5298 71.2075L79.1318 65.5965H87.0694L78.4018 80.6033L87.5246 96.3421H79.4954L76.7138 90.777C75.5732 88.6327 74.8427 87.0373 73.9755 85.2569H73.884C73.2455 87.0373 72.4705 88.6327 71.513 90.777L68.9591 96.3421H61.0203L69.9166 80.7873L61.3397 65.5965ZM35.1546 71.4354V65.5967H58.7827V71.4354H50.3895V96.3404H43.4122V71.4354H35.1546ZM108.971 122.266H41.0293V102.432H108.97V122.266H108.971ZM112.845 71.4354H104.451V96.3404H97.4721V71.4354H89.2147V65.5967H112.845V71.4354H112.845Z" fill="black"/>
</svg>
